<svg xmlns="http://www.w3.org/2000/svg" xmlns:xlink="http://www.w3.org/1999/xlink" viewBox="954 356 800 600">
  <defs>
    <style>
      .cls-1 {
        clip-path: url(#clip-LOGO_-_IMPRESSﾃグ_-_FUNDO_CLARO);
      }

      .cls-2 {
        fill: #565656;
      }

      .cls-3 {
        fill: url(#linear-gradient);
      }

      .cls-4 {
        fill: url(#linear-gradient-2);
      }

      .cls-5 {
        fill: #fff;
      }
    </style>
    <linearGradient id="linear-gradient" y1="0.5" x2="1.001" y2="0.5" gradientUnits="objectBoundingBox">
      <stop offset="0.005" stop-color="#5b9b94"/>
      <stop offset="1" stop-color="#deb134"/>
    </linearGradient>
    <linearGradient id="linear-gradient-2" y1="0.5" x2="1.005" y2="0.5" gradientUnits="objectBoundingBox">
      <stop offset="0.005" stop-color="#5fa1c5"/>
      <stop offset="0.794" stop-color="#9582b2"/>
    </linearGradient>
    <clipPath id="clip-LOGO_-_IMPRESSﾃグ_-_FUNDO_CLARO">
      <rect x="954" y="356" width="800" height="600"/>
    </clipPath>
  </defs>
  <g id="LOGO_-_IMPRESSﾃグ_-_FUNDO_CLARO" data-name="LOGO - IMPRESSﾃグ - FUNDO CLARO" class="cls-1">
    <rect class="cls-5" x="954" y="356" width="800" height="600"/>
    <g id="Group_1" data-name="Group 1" transform="translate(1200.637 604.465)">
      <path id="Path_1" data-name="Path 1" class="cls-2" d="M88.7,26.615A8.249,8.249,0,0,1,97.115,18.2h29.452c22.567,0,36.528,12.814,36.528,32.13v.191c0,21.611-17.212,32.895-38.441,32.895H105.53v23.141a8.366,8.366,0,0,1-8.415,8.415,8.249,8.249,0,0,1-8.415-8.415Zm36.528,41.5c12.814,0,20.655-7.076,20.655-17.212v-.191c0-11.284-8.032-17.212-20.655-17.212h-19.7V68.116h19.7Z" transform="translate(-88.7 -13.419)"/>
      <path id="Path_2" data-name="Path 2" class="cls-2" d="M128.269,105.392A8.564,8.564,0,0,1,125.4,99.08a7.959,7.959,0,0,1,8.032-8.032A8.162,8.162,0,0,1,138.6,92.96c4.59,4.781,9.18,7.459,15.682,7.459,9.371,0,15.491-6.12,15.491-18.934V26.215a8.49,8.49,0,0,1,8.415-8.415,8.366,8.366,0,0,1,8.415,8.415V81.868c0,11.475-3.442,19.89-8.989,25.436s-13.77,8.415-23.332,8.415A34.607,34.607,0,0,1,128.269,105.392Z" transform="translate(-55.212 -13.784)"/>
      <path id="Path_3" data-name="Path 3" class="cls-2" d="M170.3,23.746a5.513,5.513,0,0,1,5.355-5.546h35.572c10.9,0,19.7,3.251,25.053,8.415a21.219,21.219,0,0,1,6.12,15.3v.191c0,12.431-7.65,18.934-15.3,22.185,11.475,3.442,20.655,9.945,20.655,23.141v.191c0,16.447-13.77,26.2-34.807,26.2H175.655a5.513,5.513,0,0,1-5.355-5.546V23.746ZM209.506,61.04c13,0,22.185-5.929,22.185-17.212v-.191c0-9.562-7.459-15.682-21.229-15.682H181.2V61.04Zm3.825,43.413c14.535,0,23.523-6.5,23.523-17.212v-.191c0-10.519-8.8-16.447-25.436-16.447H181.01v33.851Z" transform="translate(-14.242 -13.419)"/>
      <path id="Path_4" data-name="Path 4" class="cls-2" d="M218.4,82.154v-.191c0-14.917,12.431-22.95,30.408-22.95a71.258,71.258,0,0,1,21.8,3.06V59.587c0-12.814-7.841-19.316-21.229-19.316a44.784,44.784,0,0,0-18.36,4.016,8.417,8.417,0,0,1-1.912.382,4.654,4.654,0,0,1-4.59-4.59,5.039,5.039,0,0,1,2.869-4.4A55.556,55.556,0,0,1,250.53,30.9c9.945,0,17.786,2.677,22.95,7.841,4.781,4.781,7.267,11.666,7.267,20.655V98.219a5.165,5.165,0,0,1-10.327.191v-6.5c-4.972,6.5-13.2,12.24-25.627,12.24C231.787,104.148,218.4,96.689,218.4,82.154Zm52.211-5.546V69.723a72.926,72.926,0,0,0-20.846-3.06c-13.387,0-20.655,5.737-20.655,14.726v.191c0,8.989,8.224,14.152,17.786,14.152C259.9,95.733,270.611,87.892,270.611,76.608Z" transform="translate(29.649 -1.83)"/>
      <path id="Path_5" data-name="Path 5" class="cls-2" d="M262.8,36.72a5.308,5.308,0,0,1,5.164-5.355,5.229,5.229,0,0,1,5.355,5.355v7.65c4.59-7.65,12.049-13.77,24.288-13.77,17.212,0,27.157,11.475,27.157,28.5V98.3a5.26,5.26,0,1,1-10.519,0V61.391c0-13.2-7.076-21.42-19.7-21.42-12.24,0-21.229,8.989-21.229,22.185V98.3a5.074,5.074,0,0,1-5.164,5.355A5.229,5.229,0,0,1,262.8,98.3V36.72Z" transform="translate(70.163 -2.104)"/>
      <path id="Path_6" data-name="Path 6" class="cls-2" d="M307,21.055a5.26,5.26,0,1,1,10.519,0V86.079l38.441-39.206a5.345,5.345,0,0,1,4.207-2.1,4.778,4.778,0,0,1,4.781,4.972c0,1.721-.765,2.677-2.1,4.207L339.512,76.708l25.436,31.938a5.048,5.048,0,0,1,1.339,3.634,4.873,4.873,0,0,1-5.164,4.972,5.409,5.409,0,0,1-4.59-2.486l-24.48-30.982L317.327,98.319V111.9a5.167,5.167,0,1,1-10.327,0Z" transform="translate(110.494 -15.7)"/>
    </g>
    <path id="Path_7" data-name="Path 7" class="cls-3" d="M20.655,161.031A20.856,20.856,0,0,1,0,140.185V20.655A19.793,19.793,0,0,1,6.12,6.12,20.9,20.9,0,0,1,20.655,0h43.8A20.569,20.569,0,0,1,85.105,20.655V38.632a20.614,20.614,0,0,1-7.459,15.874L35.572,89.7a5.29,5.29,0,0,1-6.885-8.032L70.953,46.282a10.092,10.092,0,0,0,3.634-7.65V20.655a10,10,0,0,0-9.945-9.945h-43.8A9.8,9.8,0,0,0,10.9,20.655v119.53a10.2,10.2,0,0,0,10.136,10.136,5.346,5.346,0,0,1,5.355,5.355A5.557,5.557,0,0,1,20.655,161.031Z" transform="translate(1031 574.439)"/>
    <path id="Path_8" data-name="Path 8" class="cls-4" d="M79.551,161.831h-43.8A20.569,20.569,0,0,1,15.1,141.176V123.2a20.614,20.614,0,0,1,7.459-15.874L64.633,71.944a5.29,5.29,0,0,1,6.885,8.032L29.252,115.549a10.092,10.092,0,0,0-3.634,7.65v17.977a10,10,0,0,0,9.945,9.945h43.8a9.8,9.8,0,0,0,9.945-9.945V21.646A10.2,10.2,0,0,0,79.168,11.51a5.355,5.355,0,1,1,0-10.71h0A20.691,20.691,0,0,1,99.823,21.455v119.53A19.793,19.793,0,0,1,93.7,155.52,17.911,17.911,0,0,1,79.551,161.831Z" transform="translate(1044.778 575.169)"/>
  </g>
</svg>
